<?xml version="1.0"?>
<svg xmlns="http://www.w3.org/2000/svg" id="Layer_1" enable-background="new 0 0 256 256" height="512px" viewBox="0 0 256 256" width="512px" class=""><g><g><g><g><path d="m121.928 140.542h-79.797c-12.962 0-23.469 10.508-23.469 23.469v18.996 10.457h20.868v21.536h85v-21.536h20.868v-10.457-18.996c-.001-12.962-10.509-23.469-23.47-23.469z" fill="#4671c6" data-original="#4671C6" class="" style="fill:#207DFF" data-old_color="#4671c6"/></g><g><path d="m58.091 120.125v22.295.003c0 12.948 10.497 23.445 23.445 23.445 12.942 0 23.445-10.489 23.445-23.448 0-4.51 0-17.633 0-22.295z" fill="#f9cfcf" data-original="#F9CFCF" class=""/></g><g><path d="m18.662 193.464h20.868v21.536h-20.868z" fill="#f9cfcf" data-original="#F9CFCF" class=""/></g><g><path d="m124.529 193.464h20.868v21.536h-20.868z" fill="#f9cfcf" data-original="#F9CFCF" class=""/></g><g><path d="m145.397 217h-126.735c-1.104 0-2-.896-2-2v-50.989c0-14.044 11.425-25.469 25.469-25.469h13.96v-18.417c0-1.104.896-2 2-2h46.89c1.104 0 2 .896 2 2v18.417h14.947c14.044 0 25.47 11.425 25.47 25.469v50.989c-.001 1.104-.896 2-2.001 2zm-124.735-4h122.735v-48.989c0-11.838-9.631-21.469-21.47-21.469h-16.947c-1.104 0-2-.896-2-2v-18.417h-42.89v18.417c0 1.104-.896 2-2 2h-15.96c-11.838 0-21.469 9.631-21.469 21.469v48.989z" fill="#3762cc" data-original="#3762CC" class="active-path" data-old_color="#3762cc" style="fill:#2B3754"/></g><g><path d="m82.029 124.068c-30.364 0-54.978-24.614-54.978-54.978v-23.028c0-7.632 6.187-13.819 13.819-13.819h96.137v36.847c0 30.363-24.614 54.978-54.978 54.978z" fill="#4671c6" data-original="#4671C6" class="" style="fill:#207DFF" data-old_color="#4671c6"/></g><g><path d="m82.029 126.067c-31.418 0-56.978-25.56-56.978-56.978v-23.027c0-8.723 7.097-15.819 15.819-15.819h96.136c1.104 0 2 .896 2 2v36.847c.001 31.417-25.559 56.977-56.977 56.977zm-41.158-91.824c-6.518 0-11.819 5.302-11.819 11.819v23.028c0 29.212 23.766 52.978 52.978 52.978s52.978-23.766 52.978-52.978v-34.847z" fill="#3762cc" data-original="#3762CC" class="active-path" data-old_color="#3762cc" style="fill:#2B3754"/></g><g><path d="m128.854 72.806v-4.384c0-25.628-20.964-46.403-46.825-46.403-25.861 0-46.825 20.775-46.825 46.403v4.384c-8.131-.165-14.582 6.312-14.582 14.142 0 8.361 7.299 14.974 15.818 14.073 4.832 20.53 23.403 35.826 45.588 35.826 22.187 0 40.756-15.297 45.588-35.826 8.508.9 15.818-5.701 15.818-14.073.002-7.833-6.454-14.307-14.58-14.142z" fill="#f9cfcf" data-original="#F9CFCF" class=""/></g><g><path d="m82.029 138.847c-22.244 0-41.386-14.615-47.124-35.746-4.025-.003-7.935-1.483-10.936-4.183-3.397-3.058-5.347-7.42-5.347-11.97 0-4.355 1.721-8.439 4.845-11.5 2.659-2.606 6.061-4.188 9.736-4.56v-2.467c0-26.689 21.903-48.403 48.825-48.403s48.825 21.713 48.825 48.403v2.467c3.676.372 7.076 1.953 9.737 4.561 3.123 3.061 4.844 7.145 4.844 11.5 0 4.549-1.948 8.911-5.345 11.968-3.002 2.701-6.912 4.181-10.938 4.185-5.736 21.129-24.878 35.745-47.122 35.745zm-45.586-39.826c.917 0 1.73.631 1.945 1.542 4.751 20.186 22.696 34.284 43.641 34.284 20.943 0 38.89-14.098 43.641-34.284.23-.981 1.159-1.643 2.157-1.531 3.509.37 6.995-.756 9.588-3.089 2.555-2.299 4.021-5.578 4.021-8.995 0-3.271-1.294-6.34-3.644-8.643-2.374-2.325-5.533-3.564-8.896-3.5-.548.017-1.057-.194-1.44-.571s-.601-.891-.601-1.429v-4.385c0-24.484-20.108-44.403-44.825-44.403s-44.826 19.921-44.826 44.404v4.385c0 .538-.217 1.052-.601 1.429-.384.376-.888.592-1.44.571-3.328-.049-6.524 1.174-8.896 3.5-2.35 2.302-3.644 5.372-3.644 8.643 0 3.417 1.466 6.696 4.022 8.996 2.593 2.332 6.087 3.459 9.586 3.088.071-.009.142-.012.212-.012z" fill="#3762cc" data-original="#3762CC" class="active-path" data-old_color="#3762cc" style="fill:#2B3754"/></g><g><path d="m137.007 63.806h-73.463c-15.652 0-28.34-12.688-28.34-28.34 0-15.652 12.688-28.34 28.34-28.34h48.086c14.016 0 25.377 11.362 25.377 25.377z" fill="#4671c6" data-original="#4671C6" class="" style="fill:#207DFF" data-old_color="#4671c6"/></g><g><path d="m137.007 65.806h-73.463c-16.729 0-30.34-13.61-30.34-30.34 0-16.729 13.61-30.339 30.34-30.339h48.086c15.096 0 27.377 12.281 27.377 27.377v31.302c0 1.104-.896 2-2 2zm-73.463-56.68c-14.523 0-26.34 11.816-26.34 26.339 0 14.524 11.816 26.34 26.34 26.34h71.463v-29.301c0-12.89-10.487-23.377-23.377-23.377h-48.086z" fill="#3762cc" data-original="#3762CC" class="active-path" data-old_color="#3762cc" style="fill:#2B3754"/></g><g><path d="m48.69 103.021h-12.249c-1.104 0-2-.896-2-2s.896-2 2-2h9.076l-12.118-25.353c-.477-.997-.055-2.19.942-2.667.994-.476 2.189-.055 2.667.942l13.486 28.215c.296.62.254 1.348-.112 1.929s-1.005.934-1.692.934z" fill="#3762cc" data-original="#3762CC" class="active-path" data-old_color="#3762cc" style="fill:#2B3754"/></g><g><path d="m127.616 103.021h-12.249c-.687 0-1.325-.353-1.691-.934-.367-.581-.409-1.309-.113-1.929l13.485-28.215c.478-.997 1.673-1.417 2.667-.942.997.477 1.419 1.67.942 2.667l-12.117 25.353h9.076c1.104 0 2 .896 2 2s-.895 2-2 2z" fill="#3762cc" data-original="#3762CC" class="active-path" data-old_color="#3762cc" style="fill:#2B3754"/></g><g><path d="m48.69 123.007c8.488 8.541 20.286 13.84 33.339 13.84s24.85-5.298 33.338-13.838v-21.988h-66.677z" fill="#e0ebfc" data-original="#E0EBFC"/></g><g><g><path d="m97.588 111.479h-31.117c-1.021 0-1.848-.828-1.848-1.848s.828-1.848 1.848-1.848h31.117c1.021 0 1.848.828 1.848 1.848s-.828 1.848-1.848 1.848z" fill="#a4c9ff" data-original="#A4C9FF"/></g></g><g><g><path d="m97.588 119.481h-31.117c-1.021 0-1.848-.828-1.848-1.848 0-1.021.828-1.848 1.848-1.848h31.117c1.021 0 1.848.828 1.848 1.848s-.828 1.848-1.848 1.848z" fill="#a4c9ff" data-original="#A4C9FF"/></g></g><g><g><path d="m97.588 127.482h-31.117c-1.021 0-1.848-.828-1.848-1.848 0-1.021.828-1.848 1.848-1.848h31.117c1.021 0 1.848.828 1.848 1.848s-.828 1.848-1.848 1.848z" fill="#a4c9ff" data-original="#A4C9FF"/></g></g><g><path d="m82.029 138.847c-13.166 0-25.51-5.125-34.758-14.43-.372-.375-.581-.881-.581-1.41v-21.986c0-1.104.896-2 2-2h66.677c1.104 0 2 .896 2 2v21.988c0 .528-.209 1.035-.581 1.41-9.249 9.304-21.592 14.428-34.757 14.428zm-31.339-16.675c8.424 8.18 19.52 12.675 31.339 12.675 11.818 0 22.914-4.494 31.338-12.673v-19.152h-62.677z" fill="#3762cc" data-original="#3762CC" class="active-path" data-old_color="#3762cc" style="fill:#2B3754"/></g><g><g><path d="m100.014 79.764c-.915 1.047-1.473 2.413-1.473 3.913v6.354c0 3.29 2.667 5.957 5.957 5.957 3.29 0 5.957-2.667 5.957-5.957v-6.066c-4.263-.745-7.82-2.495-10.441-4.201z" fill="#3762cc" data-original="#3762CC" class="active-path" data-old_color="#3762cc" style="fill:#2B3754"/></g><g><path d="m53.591 83.959v6.072c0 3.29 2.667 5.957 5.957 5.957s5.957-2.667 5.957-5.957v-6.354c0-1.506-.563-2.878-1.485-3.927-2.616 1.706-6.168 3.459-10.429 4.209z" fill="#3762cc" data-original="#3762CC" class="active-path" data-old_color="#3762cc" style="fill:#2B3754"/></g><g><path d="m114.698 86.34c-12.65 0-20.84-8.953-21.19-9.343-.737-.822-.67-2.086.152-2.824.821-.739 2.085-.67 2.822.149.129.142 7.75 8.388 18.99 8.004 1.094-.013 2.029.828 2.066 1.931.037 1.104-.827 2.029-1.932 2.067-.303.011-.608.016-.908.016z" fill="#3762cc" data-original="#3762CC" class="active-path" data-old_color="#3762cc" style="fill:#2B3754"/></g><g><path d="m49.315 86.34c-.301 0-.604-.005-.909-.015-1.104-.038-1.969-.963-1.932-2.067.038-1.104.967-1.944 2.066-1.931 11.33.397 18.914-7.918 18.988-8.002.739-.821 2.003-.89 2.824-.151.822.738.89 2.002.152 2.824-.349.39-8.539 9.342-21.189 9.342z" fill="#3762cc" data-original="#3762CC" class="active-path" data-old_color="#3762cc" style="fill:#2B3754"/></g></g><g><g><path d="m116.511 210.237c-1.385 0-2.511 1.061-2.642 2.412h-4.187c-.543-5.766-2.822-11.026-6.314-15.249l2.959-2.959c.491.404 1.085.619 1.687.619.683 0 1.365-.26 1.886-.781 1.042-1.042 1.042-2.731 0-3.772l-1.705-1.705s0 0 0 0l-1.705-1.705c-1.042-1.042-2.731-1.042-3.773 0-.98.98-1.026 2.525-.163 3.573l-2.959 2.959c-4.223-3.492-9.483-5.771-15.249-6.313v-4.188c1.351-.13 2.412-1.256 2.412-2.642 0-1.473-1.194-2.668-2.668-2.668h-4.824c-1.473 0-2.668 1.194-2.668 2.668 0 1.386 1.06 2.511 2.412 2.642v4.188c-5.766.543-11.026 2.821-15.249 6.313l-2.959-2.959c.863-1.048.817-2.593-.163-3.573-1.041-1.042-2.731-1.042-3.773 0l-1.705 1.705s-.001 0-.001.001c0 0 0 .001-.001.001l-1.705 1.704c-1.042 1.042-1.042 2.731 0 3.772.521.521 1.204.782 1.887.782.601 0 1.196-.214 1.687-.619l2.959 2.959c-3.492 4.223-5.771 9.483-6.314 15.249h-4.187c-.131-1.351-1.256-2.412-2.642-2.412-1.473 0-2.668 1.195-2.668 2.668v4.823c0 1.473 1.194 2.668 2.668 2.668 1.386 0 2.511-1.06 2.642-2.412h4.187c.543 5.766 2.822 11.026 6.314 15.249l-2.959 2.959c-1.047-.863-2.594-.817-3.574.163-1.042 1.042-1.042 2.731 0 3.773l1.705 1.705s0 0 .001.001c0 0 0 0 .001.001l1.705 1.705c.521.521 1.204.781 1.886.781s1.365-.26 1.887-.781c.979-.98 1.026-2.525.163-3.573l2.959-2.959c4.223 3.492 9.483 5.771 15.249 6.314v4.187c-1.351.131-2.412 1.256-2.412 2.642 0 1.473 1.194 2.668 2.668 2.668h4.824c1.473 0 2.668-1.194 2.668-2.668 0-1.385-1.06-2.511-2.412-2.642v-4.187c5.766-.543 11.026-2.822 15.249-6.314l2.959 2.959c-.863 1.048-.817 2.594.163 3.573.521.521 1.204.781 1.886.781s1.365-.26 1.887-.781l1.705-1.705 1.705-1.705c1.042-1.042 1.042-2.731 0-3.773-.979-.979-2.525-1.026-3.573-.163l-2.959-2.959c3.492-4.223 5.771-9.483 6.314-15.249h4.187c.131 1.352 1.257 2.412 2.642 2.412 1.473 0 2.668-1.194 2.668-2.668v-4.823c0-1.478-1.194-2.672-2.668-2.672z" fill="#6bdddd" data-original="#6BDDDD"/></g><g><circle cx="81.679" cy="215.316" fill="#4671c6" r="21.433" data-original="#4671C6" class="" style="fill:#207DFF" data-old_color="#4671c6"/></g><g><g><circle cx="77.548" cy="210.446" fill="#e0ebfc" r="7.928" data-original="#E0EBFC"/></g><g><circle cx="89.328" cy="223.703" fill="#e0ebfc" r="4.41" data-original="#E0EBFC"/></g></g><g><path d="m97.133 210.89c-.938.938-2.457.938-3.395 0l-3.395-3.395c-.937-.937-.937-2.457 0-3.395.937-.937 2.457-.937 3.395 0l3.395 3.395c.938.937.938 2.457 0 3.395z" fill="#a4c9ff" data-original="#A4C9FF"/></g><g><path d="m75.65 227.867c-.938.938-2.457.938-3.395 0l-3.395-3.395c-.937-.937-.937-2.457 0-3.395.937-.937 2.457-.937 3.395 0l3.395 3.395c.937.937.937 2.457 0 3.395z" fill="#f9a7a7" data-original="#F9A7A7"/></g><g><path d="m84.091 254.816h-4.823c-2.574 0-4.668-2.094-4.668-4.667 0-1.753.961-3.285 2.412-4.079v-.984c-4.741-.736-9.206-2.584-13.083-5.417l-.694.695c.464 1.586.06 3.349-1.179 4.589-.881.881-2.054 1.367-3.302 1.367-1.247 0-2.42-.486-3.301-1.368l-3.41-3.41c-1.82-1.82-1.82-4.781 0-6.601 1.241-1.239 3.004-1.644 4.59-1.179l.694-.695c-2.832-3.876-4.681-8.341-5.417-13.083h-.984c-.794 1.451-2.326 2.412-4.079 2.412-2.573 0-4.667-2.094-4.667-4.667v-4.824c0-2.574 2.094-4.668 4.667-4.668 1.753 0 3.286.961 4.08 2.412h.983c.736-4.742 2.585-9.206 5.417-13.083l-.694-.694c-1.612.477-3.401.01-4.592-1.181-.88-.88-1.365-2.052-1.365-3.299s.485-2.419 1.367-3.3l3.411-3.411c.882-.882 2.054-1.367 3.301-1.367 1.247 0 2.419.486 3.3 1.367 1.24 1.24 1.644 3.002 1.18 4.589l.694.695c3.877-2.833 8.342-4.681 13.083-5.417v-.984c-1.451-.793-2.412-2.326-2.412-4.079 0-2.574 2.094-4.667 4.668-4.667h4.823c2.574 0 4.668 2.094 4.668 4.667 0 1.753-.961 3.286-2.412 4.079v.984c4.741.736 9.206 2.584 13.083 5.417l.694-.695c-.464-1.587-.061-3.35 1.18-4.589.882-.882 2.054-1.367 3.301-1.367 1.247 0 2.419.486 3.3 1.367l3.411 3.41c.882.882 1.367 2.055 1.367 3.301 0 1.247-.486 2.419-1.369 3.301-1.187 1.188-2.973 1.656-4.589 1.179l-.694.694c2.833 3.876 4.682 8.34 5.418 13.083h.984c.793-1.451 2.325-2.412 4.079-2.412 2.574 0 4.668 2.094 4.668 4.668v4.824c0 2.574-2.094 4.667-4.668 4.667-1.754 0-3.286-.961-4.079-2.412h-.984c-.736 4.742-2.585 9.206-5.417 13.083l.694.695c1.588-.465 3.351-.06 4.59 1.18.881.88 1.367 2.053 1.367 3.3s-.485 2.419-1.367 3.301l-3.411 3.411c-.88.881-2.053 1.367-3.3 1.367-1.248 0-2.421-.486-3.302-1.368-1.239-1.24-1.643-3.002-1.179-4.589l-.694-.695c-3.877 2.833-8.342 4.681-13.083 5.417v.984c1.451.793 2.412 2.326 2.412 4.079 0 2.573-2.094 4.667-4.668 4.667zm-20.328-19.81c.451 0 .903.152 1.274.459 4.045 3.345 8.941 5.372 14.162 5.863 1.027.097 1.813.959 1.813 1.991v4.187c0 1.03-.782 1.892-1.808 1.991-.345.033-.604.313-.604.651 0 .368.3.667.668.667h4.823c.368 0 .668-.299.668-.667 0-.338-.26-.618-.604-.651-1.025-.099-1.808-.96-1.808-1.991v-4.188c0-1.032.785-1.895 1.813-1.991 5.221-.491 10.117-2.519 14.162-5.863.793-.658 1.958-.604 2.688.127l2.959 2.959c.729.728.784 1.891.13 2.686-.22.267-.205.648.034.888.169.17.368.195.472.195s.302-.025.471-.195l3.412-3.412c.17-.17.195-.368.195-.472 0-.103-.025-.302-.195-.472-.24-.242-.622-.253-.888-.034-.794.655-1.955.601-2.686-.129l-2.959-2.959c-.729-.729-.784-1.894-.127-2.688 3.344-4.044 5.372-8.941 5.863-14.162.097-1.027.959-1.813 1.991-1.813h4.188c1.03 0 1.893.783 1.991 1.809.032.344.313.603.65.603.368 0 .668-.299.668-.667v-4.824c0-.368-.3-.668-.668-.668-.338 0-.618.259-.65.604-.099 1.026-.961 1.809-1.991 1.809h-4.188c-1.032 0-1.895-.785-1.991-1.813-.492-5.221-2.52-10.119-5.864-14.162-.657-.795-.603-1.96.127-2.689l2.96-2.959c.729-.729 1.893-.784 2.687-.128.128.106.271.162.414.162.104 0 .302-.025.471-.195.172-.171.197-.37.197-.473 0-.104-.025-.302-.195-.472l-3.411-3.411c-.17-.17-.369-.195-.472-.195-.104 0-.303.025-.473.195-.239.239-.253.621-.033.888.654.795.599 1.958-.13 2.686l-2.959 2.959c-.73.73-1.895.784-2.688.127-4.045-3.345-8.941-5.372-14.162-5.863-1.027-.097-1.813-.959-1.813-1.991v-4.188c0-1.03.782-1.892 1.808-1.991.345-.033.604-.313.604-.651 0-.368-.3-.667-.668-.667h-4.823c-.368 0-.668.299-.668.667 0 .338.26.618.604.651 1.025.099 1.808.96 1.808 1.991v4.188c0 1.032-.785 1.895-1.813 1.991-5.221.491-10.117 2.519-14.162 5.863-.794.657-1.959.603-2.688-.127l-2.959-2.959c-.729-.728-.784-1.891-.13-2.686.22-.267.206-.648-.033-.888-.17-.17-.369-.195-.472-.195-.104 0-.303.025-.473.195l-3.411 3.411c-.17.17-.195.369-.195.472 0 .104.025.302.195.472.344.344.648.232.887.035.795-.655 1.958-.6 2.687.129l2.959 2.959c.729.729.784 1.894.127 2.688-3.344 4.044-5.372 8.941-5.863 14.162-.097 1.027-.959 1.813-1.991 1.813h-4.187c-1.03 0-1.892-.782-1.99-1.807-.034-.345-.314-.605-.652-.605-.368 0-.667.3-.667.668v4.824c0 .368.299.667.667.667.338 0 .618-.26.652-.604.099-1.025.96-1.807 1.99-1.807h4.187c1.032 0 1.895.785 1.991 1.813.491 5.221 2.52 10.118 5.863 14.162.657.795.603 1.959-.127 2.688l-2.959 2.959c-.729.73-1.892.785-2.687.129-.267-.22-.646-.205-.888.035-.259.26-.259.683.001.944l3.411 3.411c.17.17.368.195.472.195s.303-.025.472-.195c.239-.24.254-.621.034-.888-.654-.795-.599-1.958.13-2.686l2.959-2.959c.388-.391.9-.588 1.414-.588z" fill="#3762cc" data-original="#3762CC" class="active-path" data-old_color="#3762cc" style="fill:#2B3754"/></g></g><g><path d="m39.529 217c-1.104 0-2-.896-2-2v-37.229c0-1.104.896-2 2-2s2 .896 2 2v37.229c0 1.104-.895 2-2 2z" fill="#3762cc" data-original="#3762CC" class="active-path" data-old_color="#3762cc" style="fill:#2B3754"/></g><g><path d="m124.529 217c-1.104 0-2-.896-2-2v-37.229c0-1.104.896-2 2-2s2 .896 2 2v37.229c0 1.104-.895 2-2 2z" fill="#3762cc" data-original="#3762CC" class="active-path" data-old_color="#3762cc" style="fill:#2B3754"/></g><g><path d="m39.529 217h-20.867c-1.104 0-2-.896-2-2v-21.536c0-1.104.896-2 2-2h20.867c1.104 0 2 .896 2 2v21.536c0 1.104-.895 2-2 2zm-18.867-4h16.867v-17.536h-16.867z" fill="#3762cc" data-original="#3762CC" class="active-path" data-old_color="#3762cc" style="fill:#2B3754"/></g><g><path d="m145.397 217h-20.868c-1.104 0-2-.896-2-2v-21.536c0-1.104.896-2 2-2h20.868c1.104 0 2 .896 2 2v21.536c0 1.104-.895 2-2 2zm-18.868-4h16.868v-17.536h-16.868z" fill="#3762cc" data-original="#3762CC" class="active-path" data-old_color="#3762cc" style="fill:#2B3754"/></g></g><g><path d="m218.268 228h-37.716c-2.761 0-5-2.239-5-5v-61.698h47.716v61.698c0 2.761-2.239 5-5 5z" fill="#6bdddd" data-original="#6BDDDD"/></g><g><path d="m175.551 94.603h47.716v66.698h-47.716z" fill="#ffea92" data-original="#FFEA92" class=""/></g><g><path d="m223.268 94.603h-47.716v-61.698c0-2.761 2.239-5 5-5h37.716c2.761 0 5 2.239 5 5z" fill="#f9a7a7" data-original="#F9A7A7"/></g><g><path d="m218.268 230h-37.716c-3.859 0-7-3.14-7-7v-61.698c0-1.104.896-2 2-2h47.716c1.104 0 2 .896 2 2v61.698c0 3.86-3.141 7-7 7zm-40.716-66.698v59.698c0 1.654 1.346 3 3 3h37.716c1.654 0 3-1.346 3-3v-59.698z" fill="#3762cc" data-original="#3762CC" class="active-path" data-old_color="#3762cc" style="fill:#2B3754"/></g><g><path d="m223.268 163.302h-47.716c-1.104 0-2-.896-2-2v-66.699c0-1.104.896-2 2-2h47.716c1.104 0 2 .896 2 2v66.699c0 1.104-.896 2-2 2zm-45.716-4h43.716v-62.699h-43.716z" fill="#3762cc" data-original="#3762CC" class="active-path" data-old_color="#3762cc" style="fill:#2B3754"/></g><g><path d="m223.268 96.603h-47.716c-1.104 0-2-.896-2-2v-61.698c0-3.86 3.141-7 7-7h37.716c3.859 0 7 3.14 7 7v61.698c0 1.105-.896 2-2 2zm-45.716-4h43.716v-59.698c0-1.654-1.346-3-3-3h-37.716c-1.654 0-3 1.346-3 3z" fill="#3762cc" data-original="#3762CC" class="active-path" data-old_color="#3762cc" style="fill:#2B3754"/></g><g><path d="m237.338 179.938v29.426c0 1.741-2.024 2.698-3.37 1.594l-17.929-14.713c-1.005-.825-1.005-2.363 0-3.188l17.929-14.713c1.346-1.104 3.37-.147 3.37 1.594z" fill="#4671c6" data-original="#4671C6" class="" style="fill:#207DFF" data-old_color="#4671c6"/></g><g><path d="m235.268 213.432c-.917 0-1.821-.315-2.567-.928l-17.93-14.713c-.943-.774-1.485-1.918-1.485-3.139s.541-2.366 1.484-3.14l17.931-14.713c1.227-1.007 2.879-1.21 4.313-.532 1.435.678 2.325 2.085 2.325 3.672v29.426c0 1.586-.891 2.994-2.325 3.672-.563.264-1.157.395-1.746.395zm.067-33.527-18.027 14.697 17.93 14.809.101-.048v-29.426c-.001-.023-.004-.032-.004-.032z" fill="#3762cc" data-original="#3762CC" class="active-path" data-old_color="#3762cc" style="fill:#2B3754"/></g></g></g> </svg>
