<?xml version="1.0"?>
<svg xmlns="http://www.w3.org/2000/svg" id="Layer_1" enable-background="new 0 0 256 256" height="512px" viewBox="0 0 256 256" width="512px" class="hovered-paths"><g><g><g><g><path d="m233.656 194.381c-1.104 0-2-.896-2-2v-9.606c0-1.104.896-2 2-2s2 .896 2 2v9.606c0 1.104-.895 2-2 2z" fill="#3762cc" data-original="#3762CC" class="hovered-path active-path" data-old_color="#3762cc" style="fill:#3A4256"/></g></g><g><g><g><g><path d="m80.329 253.317v-.054-11.75c0-8.018-6.5-14.518-14.518-14.518h-49.361c-8.018 0-14.518 6.5-14.518 14.518v11.75.054z" fill="#a4c9ff" data-original="#A4C9FF"/></g></g><g><g><path d="m26.613 210.283v17.873.002c0 8.01 6.493 14.503 14.503 14.503 8.01 0 14.503-6.493 14.503-14.503v-.002c0-6.695 0-11.599 0-17.873z" fill="#f9cfcf" data-original="#F9CFCF"/></g></g><g><g><path d="m80.329 255.317h-78.397c-1.104 0-2-.896-2-2v-11.805c0-9.107 7.41-16.518 16.519-16.518h8.163v-14.712c0-1.104.896-2 2-2h29.006c1.104 0 2 .896 2 2v14.712h8.191c9.108 0 16.519 7.41 16.519 16.518v11.751c-.001 1.105-.896 2.054-2.001 2.054zm-76.397-4h74.397v-9.805c0-6.902-5.616-12.518-12.519-12.518h-10.191c-1.104 0-2-.896-2-2v-14.712h-25.006v14.712c0 1.104-.896 2-2 2h-10.163c-6.902 0-12.519 5.615-12.519 12.518v9.805z" fill="#3762cc" data-original="#3762CC" class="hovered-path active-path" data-old_color="#3762cc" style="fill:#3A4256"/></g></g><g><g><path d="m41.13 216.804c-18.783 0-34.009-15.226-34.009-34.009v-14.244c0-4.721 3.827-8.548 8.548-8.548h59.469v22.793c.001 18.782-15.225 34.008-34.008 34.008z" fill="#4671c6" data-original="#4671C6" class=""/></g></g><g><g><path d="m41.13 218.805c-19.854 0-36.008-16.153-36.008-36.009v-14.245c0-5.816 4.731-10.548 10.548-10.548h59.469c1.104 0 2 .896 2 2v22.793c0 19.855-16.154 36.009-36.009 36.009zm-25.46-56.802c-3.61 0-6.548 2.938-6.548 6.548v14.245c0 17.649 14.358 32.009 32.008 32.009s32.009-14.359 32.009-32.009v-20.793z" fill="#3762cc" data-original="#3762CC" class="hovered-path active-path" data-old_color="#3762cc" style="fill:#3A4256"/></g></g><g><g><path d="m70.096 185.095v-2.712c0-15.853-12.968-28.704-28.965-28.704-15.997 0-28.965 12.851-28.965 28.704v2.712c-5.03-.102-9.02 3.905-9.02 8.748 0 5.172 4.515 9.262 9.785 8.705 2.989 12.7 14.477 22.161 28.2 22.161 13.725 0 25.211-9.463 28.2-22.161 5.263.557 9.785-3.526 9.785-8.705 0-4.846-3.994-8.85-9.02-8.748z" fill="#f9cfcf" data-original="#F9CFCF"/></g></g><g><g><path d="m56.168 199.807c-2.022 0-3.661-1.639-3.661-3.661v-3.905c0-2.022 1.639-3.661 3.661-3.661 2.022 0 3.661 1.639 3.661 3.661v3.905c0 2.022-1.639 3.661-3.661 3.661z" fill="#3762cc" data-original="#3762CC" class="hovered-path active-path" data-old_color="#3762cc" style="fill:#3A4256"/></g></g><g><g><path d="m26.085 199.807c-2.022 0-3.661-1.639-3.661-3.661v-3.905c0-2.022 1.639-3.661 3.661-3.661 2.022 0 3.661 1.639 3.661 3.661v3.905c0 2.022-1.639 3.661-3.661 3.661z" fill="#3762cc" data-original="#3762CC" class="hovered-path active-path" data-old_color="#3762cc" style="fill:#3A4256"/></g></g><g><g><path d="m41.13 226.709c-13.914 0-25.915-9.02-29.732-22.127-2.47-.134-4.841-1.102-6.692-2.768-2.263-2.036-3.561-4.941-3.561-7.972 0-2.9 1.146-5.62 3.226-7.659 1.604-1.571 3.613-2.583 5.795-2.943v-.857c0-16.931 13.891-30.705 30.965-30.705s30.966 13.774 30.966 30.705v.857c2.182.36 4.189 1.372 5.794 2.943 2.08 2.038 3.226 4.759 3.226 7.659 0 3.03-1.297 5.936-3.559 7.971-1.853 1.666-4.224 2.635-6.694 2.768-3.818 13.108-15.819 22.128-29.734 22.128zm-28.198-26.161c.917 0 1.73.631 1.945 1.542 2.857 12.141 13.652 20.619 26.253 20.619s23.396-8.479 26.253-20.619c.23-.981 1.155-1.632 2.157-1.531 1.983.214 3.876-.4 5.341-1.719 1.42-1.278 2.234-3.1 2.234-4.997 0-1.816-.72-3.522-2.025-4.802-1.32-1.295-3.104-1.96-4.953-1.946-.536-.001-1.057-.195-1.44-.571-.384-.376-.601-.892-.601-1.429v-2.712c0-14.726-12.097-26.705-26.966-26.705-14.868 0-26.965 11.979-26.965 26.705v2.712c0 .537-.217 1.053-.601 1.429s-.904.575-1.44.571c-1.882-.057-3.635.652-4.954 1.946-1.306 1.28-2.025 2.985-2.025 4.802 0 1.897.815 3.72 2.236 4.998 1.465 1.318 3.365 1.932 5.338 1.718.071-.007.142-.011.213-.011z" fill="#3762cc" data-original="#3762CC" class="hovered-path active-path" data-old_color="#3762cc" style="fill:#3A4256"/></g></g><g><g><path d="m12.165 144.466h45.443c9.682 0 17.531 7.849 17.531 17.531 0 9.682-7.849 17.531-17.531 17.531h-29.745c-8.67 0-15.698-7.028-15.698-15.698z" fill="#4671c6" data-original="#4671C6" class=""/></g></g><g><g><path d="m57.608 181.527h-29.745c-9.759 0-17.698-7.939-17.698-17.698v-19.363c0-1.104.896-2 2-2h45.443c10.769 0 19.53 8.762 19.53 19.53.001 10.77-8.761 19.531-19.53 19.531zm-43.443-35.061v17.363c0 7.554 6.145 13.698 13.698 13.698h29.745c8.563 0 15.53-6.968 15.53-15.531s-6.967-15.53-15.53-15.53z" fill="#3762cc" data-original="#3762CC" class="hovered-path active-path" data-old_color="#3762cc" style="fill:#3A4256"/></g></g><g><g><path d="m41.116 213.406c-1.261 0-2.367-.15-3.381-.459-1.681-.511-3.161-1.377-4.282-2.506-.777-.784-.772-2.051.011-2.829.785-.777 2.049-.772 2.829.011.655.661 1.557 1.179 2.606 1.497.632.192 1.356.286 2.217.286s1.585-.094 2.215-.285c1.052-.319 1.953-.837 2.608-1.498.779-.784 2.044-.789 2.829-.011.783.778.788 2.045.011 2.829-1.121 1.129-2.602 1.995-4.284 2.507-1.012.308-2.118.458-3.379.458z" fill="#3762cc" data-original="#3762CC" class="hovered-path active-path" data-old_color="#3762cc" style="fill:#3A4256"/></g></g></g><g><g><g><path d="m167.199 253.317v-.054-11.75c0-8.018-6.5-14.518-14.518-14.518h-49.361c-8.018 0-14.518 6.5-14.518 14.518v11.75.054z" fill="#4671c6" data-original="#4671C6" class=""/></g></g><g><g><path d="m113.483 210.283v17.873.002c0 8.01 6.493 14.503 14.503 14.503 8.01 0 14.503-6.493 14.503-14.503v-.002c0-6.695 0-11.599 0-17.873z" fill="#f9cfcf" data-original="#F9CFCF"/></g></g><g><g><path d="m167.198 255.317h-78.396c-1.104 0-2-.896-2-2v-11.805c0-9.107 7.41-16.518 16.518-16.518h8.164v-14.712c0-1.104.896-2 2-2h29.005c1.104 0 2 .896 2 2v14.712h8.192c9.107 0 16.518 7.41 16.518 16.518v11.751c-.001 1.105-.896 2.054-2.001 2.054zm-76.396-4h74.396v-9.805c0-6.902-5.615-12.518-12.518-12.518h-10.192c-1.104 0-2-.896-2-2v-14.712h-25.005v14.712c0 1.104-.896 2-2 2h-10.164c-6.902 0-12.518 5.615-12.518 12.518v9.805z" fill="#3762cc" data-original="#3762CC" class="hovered-path active-path" data-old_color="#3762cc" style="fill:#3A4256"/></g></g><g><g><path d="m128 216.804c-18.783 0-34.009-15.226-34.009-34.009v-14.244c0-4.721 3.827-8.548 8.548-8.548h59.469v22.793c.001 18.782-15.226 34.008-34.008 34.008z" fill="#4671c6" data-original="#4671C6" class=""/></g></g><g><g><path d="m128 218.805c-19.855 0-36.009-16.153-36.009-36.009v-14.245c0-5.816 4.732-10.548 10.549-10.548h59.469c1.104 0 2 .896 2 2v22.793c0 19.855-16.154 36.009-36.009 36.009zm-25.46-56.802c-3.611 0-6.549 2.938-6.549 6.548v14.245c0 17.649 14.359 32.009 32.009 32.009s32.009-14.359 32.009-32.009v-20.793z" fill="#3762cc" data-original="#3762CC" class="hovered-path active-path" data-old_color="#3762cc" style="fill:#3A4256"/></g></g><g><g><path d="m156.965 185.095v-2.712c0-15.853-12.968-28.704-28.965-28.704-15.997 0-28.965 12.851-28.965 28.704v2.712c-5.03-.102-9.02 3.905-9.02 8.748 0 5.172 4.515 9.262 9.785 8.705 2.989 12.7 14.477 22.161 28.2 22.161 13.725 0 25.211-9.463 28.2-22.161 5.263.557 9.785-3.526 9.785-8.705 0-4.846-3.993-8.85-9.02-8.748z" fill="#f9cfcf" data-original="#F9CFCF"/></g></g><g><g><path d="m143.038 199.807c-2.022 0-3.661-1.639-3.661-3.661v-3.905c0-2.022 1.639-3.661 3.661-3.661 2.022 0 3.661 1.639 3.661 3.661v3.905c0 2.022-1.639 3.661-3.661 3.661z" fill="#3762cc" data-original="#3762CC" class="hovered-path active-path" data-old_color="#3762cc" style="fill:#3A4256"/></g></g><g><g><path d="m112.955 199.807c-2.022 0-3.661-1.639-3.661-3.661v-3.905c0-2.022 1.639-3.661 3.661-3.661 2.022 0 3.661 1.639 3.661 3.661v3.905c0 2.022-1.639 3.661-3.661 3.661z" fill="#3762cc" data-original="#3762CC" class="hovered-path active-path" data-old_color="#3762cc" style="fill:#3A4256"/></g></g><g><g><path d="m128 226.709c-13.914 0-25.915-9.02-29.732-22.127-2.47-.134-4.841-1.102-6.692-2.768-2.263-2.036-3.561-4.941-3.561-7.972 0-2.9 1.146-5.621 3.226-7.659 1.604-1.572 3.613-2.583 5.795-2.943v-.857c0-16.931 13.891-30.705 30.965-30.705s30.965 13.774 30.965 30.705v.857c2.182.36 4.19 1.372 5.795 2.944 2.08 2.038 3.226 4.758 3.226 7.658 0 3.03-1.297 5.935-3.56 7.971-1.852 1.666-4.224 2.635-6.693 2.768-3.819 13.108-15.82 22.128-29.734 22.128zm-28.198-26.161c.917 0 1.73.631 1.945 1.542 2.857 12.141 13.652 20.619 26.253 20.619 12.6 0 23.396-8.479 26.253-20.619.23-.981 1.168-1.632 2.157-1.531 1.984.214 3.876-.4 5.341-1.719 1.42-1.278 2.234-3.1 2.234-4.997 0-1.816-.719-3.521-2.025-4.802-1.32-1.294-3.119-1.972-4.954-1.946-.552-.001-1.057-.195-1.44-.571s-.601-.892-.601-1.429v-2.712c0-14.726-12.097-26.705-26.965-26.705s-26.965 11.979-26.965 26.705v2.712c0 .537-.217 1.053-.601 1.429s-.921.575-1.44.571c-1.883-.057-3.635.652-4.954 1.946-1.306 1.279-2.025 2.984-2.025 4.802 0 1.897.814 3.72 2.235 4.998 1.465 1.318 3.359 1.932 5.34 1.718.07-.007.141-.011.212-.011z" fill="#3762cc" data-original="#3762CC" class="hovered-path active-path" data-old_color="#3762cc" style="fill:#3A4256"/></g></g><g><g><path d="m162.009 179.527h-45.443c-9.682 0-17.531-7.849-17.531-17.531 0-9.682 7.849-17.531 17.531-17.531h29.745c8.67 0 15.698 7.028 15.698 15.698z" fill="#4671c6" data-original="#4671C6" class=""/></g></g><g><g><path d="m162.009 181.527h-45.443c-10.769 0-19.53-8.762-19.53-19.531s8.762-19.53 19.53-19.53h29.745c9.759 0 17.698 7.939 17.698 17.698v19.363c0 1.105-.896 2-2 2zm-45.444-35.061c-8.563 0-15.53 6.967-15.53 15.53s6.967 15.531 15.53 15.531h43.443v-17.363c0-7.554-6.145-13.698-13.698-13.698z" fill="#3762cc" data-original="#3762CC" class="hovered-path active-path" data-old_color="#3762cc" style="fill:#3A4256"/></g></g><g><g><path d="m127.986 213.406c-1.262 0-2.368-.15-3.381-.459-1.68-.51-3.161-1.377-4.282-2.506-.777-.784-.772-2.051.011-2.829.785-.777 2.049-.772 2.829.011.655.661 1.557 1.179 2.606 1.497.632.192 1.355.286 2.217.286.86 0 1.584-.094 2.214-.285 1.052-.319 1.953-.837 2.608-1.498.779-.784 2.044-.789 2.829-.011.783.778.788 2.045.011 2.829-1.121 1.129-2.603 1.996-4.284 2.507-1.01.308-2.116.458-3.378.458z" fill="#3762cc" data-original="#3762CC" class="hovered-path active-path" data-old_color="#3762cc" style="fill:#3A4256"/></g></g></g><g><g><g><path d="m251.591 210.173-2.566-19.655c.435-2.211.669-4.494.669-6.832v-7.772c0-17.368-14.079-31.447-31.447-31.447h-7.48c-17.368 0-31.447 14.079-31.447 31.447v7.772c0 2.33.232 4.606.664 6.809l-2.569 19.678c-1.206 9.238 5.986 17.43 15.302 17.43h21.786 21.786c9.316 0 16.508-8.192 15.302-17.43z" fill="#4671c6" data-original="#4671C6" class=""/></g></g><g><g><path d="m236.289 229.604h-43.573c-5.016 0-9.791-2.162-13.101-5.932-3.309-3.77-4.835-8.784-4.186-13.758l2.529-19.359c-.426-2.27-.641-4.579-.641-6.87v-7.771c0-18.443 15.004-33.447 33.447-33.447h7.48c18.443 0 33.447 15.004 33.447 33.447v7.771c0 2.296-.217 4.613-.645 6.894l2.525 19.336c.649 4.975-.876 9.989-4.186 13.759-3.306 3.767-8.08 5.93-13.096 5.93zm-25.523-83.138c-16.237 0-29.447 13.21-29.447 29.447v7.771c0 2.143.211 4.304.628 6.424.041.213.048.431.021.645l-2.57 19.679c-.501 3.833.675 7.697 3.225 10.602 2.551 2.904 6.229 4.57 10.095 4.57h43.573c3.864 0 7.544-1.666 10.094-4.57s3.726-6.769 3.225-10.602l-2.566-19.655c-.027-.215-.021-.433.021-.645.419-2.132.632-4.301.632-6.447v-7.771c0-16.237-13.21-29.447-29.447-29.447h-7.484z" fill="#3762cc" data-original="#3762CC" class="hovered-path active-path" data-old_color="#3762cc" style="fill:#3A4256"/></g></g><g><g><path d="m253.704 253.317v-.054-11.75c0-8.018-6.5-14.518-14.518-14.518h-49.361c-8.018 0-14.518 6.5-14.518 14.518v11.75.054z" fill="#4671c6" data-original="#4671C6" class=""/></g></g><g><g><path d="m199.989 210.283v17.873.002c0 8.01 6.493 14.503 14.503 14.503 8.01 0 14.503-6.493 14.503-14.503v-.002c0-6.695 0-11.599 0-17.873z" fill="#f9cfcf" data-original="#F9CFCF"/></g></g><g><g><path d="m253.704 255.317h-78.396c-1.104 0-2-.896-2-2v-11.805c0-9.107 7.41-16.518 16.518-16.518h8.164v-14.712c0-1.104.896-2 2-2h29.005c1.104 0 2 .896 2 2v14.712h8.192c9.107 0 16.518 7.41 16.518 16.518v11.751c-.001 1.105-.896 2.054-2.001 2.054zm-76.396-4h74.396v-9.805c0-6.902-5.615-12.518-12.518-12.518h-10.192c-1.104 0-2-.896-2-2v-14.712h-25.005v14.712c0 1.104-.896 2-2 2h-10.164c-6.902 0-12.518 5.615-12.518 12.518v9.805z" fill="#3762cc" data-original="#3762CC" class="hovered-path active-path" data-old_color="#3762cc" style="fill:#3A4256"/></g></g><g><g><g><path d="m242.737 185.575v-2.643c0-15.451-12.64-27.977-28.231-27.977-15.592 0-28.231 12.526-28.231 27.977v2.643c-4.902-.099-8.791 3.806-8.791 8.526 0 5.041 4.401 9.028 9.537 8.485 2.914 12.378 14.11 21.6 27.486 21.6 13.377 0 24.572-9.223 27.486-21.6 5.13.542 9.537-3.437 9.537-8.485-.001-4.722-3.894-8.625-8.793-8.526z" fill="#f9cfcf" data-original="#F9CFCF"/></g></g><g><g><path d="m214.506 226.187c-13.572 0-25.28-8.79-29.019-21.569-2.405-.138-4.713-1.084-6.518-2.708-2.217-1.994-3.487-4.84-3.487-7.808 0-2.841 1.122-5.504 3.159-7.501 1.561-1.529 3.513-2.517 5.633-2.876v-.793c0-16.529 13.562-29.977 30.231-29.977s30.231 13.447 30.231 29.977v.793c2.12.359 4.071 1.347 5.632 2.876 2.037 1.996 3.159 4.66 3.159 7.501 0 2.968-1.271 5.813-3.485 7.807-1.805 1.624-4.113 2.57-6.52 2.709-3.737 12.778-15.444 21.569-29.016 21.569zm-27.485-25.6c.917 0 1.73.631 1.944 1.542 2.781 11.81 13.283 20.058 25.54 20.058s22.759-8.248 25.538-20.058c.231-.981 1.155-1.63 2.157-1.531 1.911.206 3.749-.388 5.166-1.663 1.394-1.254 2.161-2.971 2.161-4.833 0-1.757-.695-3.406-1.959-4.644-1.276-1.251-2.959-1.93-4.791-1.883-.543-.022-1.058-.196-1.44-.571-.384-.376-.601-.892-.601-1.429v-2.644c0-14.323-11.768-25.977-26.231-25.977s-26.231 11.653-26.231 25.977v2.644c0 .537-.217 1.053-.601 1.429-.384.375-.924.554-1.44.571-1.801-.03-3.516.632-4.792 1.883-1.264 1.237-1.959 2.887-1.959 4.644 0 1.835.788 3.598 2.162 4.834 1.417 1.274 3.243 1.865 5.165 1.662.071-.007.142-.011.212-.011z" fill="#3762cc" data-original="#3762CC" class="hovered-path active-path" data-old_color="#3762cc" style="fill:#3A4256"/></g></g></g><g><g><path d="m214.514 210.979c-2.335 0-4.511-.844-5.971-2.314-.584-.588-.58-1.538.008-2.121.589-.585 1.538-.58 2.121.008.888.895 2.323 1.428 3.841 1.428 1.527 0 2.919-.521 3.819-1.428.582-.586 1.531-.593 2.121-.008.588.583.592 1.533.008 2.121-1.459 1.47-3.627 2.314-5.947 2.314z" fill="#3762cc" data-original="#3762CC" class="hovered-path active-path" data-old_color="#3762cc" style="fill:#3A4256"/></g></g><g><g><path d="m234.823 190.382c-.313-.544-1.009-.73-1.553-.416l-1.119.646c-.68-.944-1.787-1.562-3.039-1.562-2.069 0-3.747 1.677-3.747 3.747v3.996c0 2.069 1.677 3.747 3.747 3.747 2.069 0 3.747-1.677 3.747-3.747v-3.965l1.548-.894c.544-.313.73-1.008.416-1.552z" fill="#3762cc" data-original="#3762CC" class="hovered-path active-path" data-old_color="#3762cc" style="fill:#3A4256"/></g></g><g><g><path d="m194.181 190.031c.313-.544 1.009-.73 1.553-.416l1.119.646c.68-.944 1.787-1.562 3.039-1.562 2.069 0 3.747 1.677 3.747 3.747v3.996c0 2.069-1.677 3.747-3.747 3.747-2.069 0-3.747-1.677-3.747-3.747v-3.965l-1.548-.894c-.543-.313-.729-1.008-.416-1.552z" fill="#3762cc" data-original="#3762CC" class="hovered-path active-path" data-old_color="#3762cc" style="fill:#3A4256"/></g></g><g><g><path d="m249.693 186.36h-30.645c-13.691 0-24.791-11.099-24.791-24.791 0-9.446 7.657-17.103 17.103-17.103h6.885c17.368 0 31.447 14.079 31.447 31.447v10.447z" fill="#4671c6" data-original="#4671C6" class=""/></g></g><g><g><path d="m249.693 188.359h-30.645c-14.772 0-26.791-12.018-26.791-26.79 0-10.534 8.569-19.104 19.104-19.104h6.885c18.443 0 33.447 15.004 33.447 33.447v10.446c0 1.106-.895 2.001-2 2.001zm-38.332-41.893c-8.328 0-15.104 6.775-15.104 15.104 0 12.566 10.224 22.79 22.791 22.79h28.645v-8.446c0-16.237-13.21-29.447-29.447-29.447h-6.885z" fill="#3762cc" data-original="#3762CC" class="hovered-path active-path" data-old_color="#3762cc" style="fill:#3A4256"/></g></g></g><g><g><g><path d="m134.158 128.101h-4.394c-2.229-20.306-22.915-36.27-48.034-36.27-26.601 0-48.243 17.902-48.243 39.907 0 1.539 1.247 2.786 2.786 2.786s2.786-1.247 2.786-2.786c0-18.932 19.143-34.336 42.672-34.336 22.002 0 40.165 13.47 42.43 30.699h-3.944c-1.533 0-2.405 1.751-1.483 2.975l6.971 9.244c.743.985 2.222.985 2.965 0l6.971-9.244c.922-1.223.049-2.975-1.483-2.975z" fill="#6bdddd" data-original="#6BDDDD" class=""/></g></g><g><g><path d="m225.696 128.101h-4.394c-2.229-20.306-22.915-36.27-48.034-36.27-26.601 0-48.243 17.902-48.243 39.907 0 1.539 1.247 2.786 2.786 2.786s2.786-1.247 2.786-2.786c0-18.932 19.143-34.336 42.672-34.336 22.002 0 40.165 13.47 42.43 30.699h-3.944c-1.533 0-2.405 1.751-1.483 2.975l6.971 9.244c.743.985 2.222.985 2.965 0l6.971-9.244c.922-1.223.049-2.975-1.483-2.975z" fill="#6bdddd" data-original="#6BDDDD" class=""/></g></g></g></g><g><g><path d="m170.57 45.57c0-23.511-19.059-42.57-42.57-42.57s-42.57 19.059-42.57 42.57c0 19.921 13.686 36.642 32.167 41.284l8.761 15.313c.727 1.27 2.558 1.27 3.284 0l8.761-15.313c18.482-4.642 32.167-21.362 32.167-41.284z" fill="#f9a7a7" data-original="#F9A7A7"/></g></g><g><g><path d="m128 105.12c-1.413 0-2.677-.732-3.378-1.959l-8.344-14.584c-19.384-5.264-32.848-22.826-32.848-43.007 0-24.576 19.994-44.57 44.57-44.57s44.57 19.994 44.57 44.57c0 20.181-13.464 37.743-32.849 43.007l-8.343 14.584c-.701 1.227-1.965 1.959-3.378 1.959zm0-100.12c-22.37 0-40.57 18.2-40.57 40.57 0 18.632 12.605 34.811 30.654 39.345.527.132.979.474 1.249.946l8.667 15.15 8.667-15.15c.271-.473.722-.814 1.249-.946 18.049-4.534 30.654-20.713 30.654-39.345 0-22.37-18.2-40.57-40.57-40.57z" fill="#3762cc" data-original="#3762CC" class="hovered-path active-path" data-old_color="#3762cc" style="fill:#3A4256"/></g></g><g><g><g><path d="m158.51 41.483c-1.213 0-2.2.929-2.314 2.113h-3.668c-.475-5.05-2.471-9.658-5.53-13.357l2.592-2.592c.973.802 2.308.679 3.13-.143.913-.912.913-2.392 0-3.304l-1.493-1.493-1.493-1.493c-.912-.912-2.392-.913-3.304 0-.858.858-.899 2.212-.143 3.13l-2.592 2.592c-3.699-3.059-8.306-5.055-13.356-5.53v-3.668c1.184-.115 2.112-1.1 2.112-2.314 0-1.291-1.046-2.336-2.337-2.336h-4.225c-1.291 0-2.337 1.046-2.337 2.336 0 1.214.929 2.2 2.113 2.314v3.668c-5.05.475-9.658 2.471-13.357 5.53l-2.592-2.592c.756-.918.716-2.272-.143-3.13-.912-.912-2.392-.913-3.304 0-.186.186-.038.038-2.988 2.987-.913.912-.913 2.392 0 3.304.822.822 2.157.945 3.13.143l2.592 2.592c-3.059 3.699-5.055 8.306-5.53 13.357h-3.668c-.114-1.184-1.1-2.113-2.314-2.113-1.291 0-2.337 1.046-2.337 2.337v4.225c0 1.291 1.046 2.336 2.337 2.336 1.214 0 2.2-.929 2.314-2.112h3.668c.475 5.05 2.471 9.658 5.53 13.357l-2.592 2.592c-.918-.756-2.272-.716-3.13.142-.912.913-.912 2.392 0 3.304.066.066 1.494 1.494 1.494 1.494.836.557 1.505 2.178 3.146 2.178.598 0 1.196-.228 1.652-.684.858-.858.899-2.212.143-3.13l2.592-2.592c3.699 3.059 8.306 5.055 13.357 5.53v3.668c-1.184.114-2.113 1.1-2.113 2.314 0 1.29 1.046 2.337 2.337 2.337h4.225c1.291 0 2.337-1.046 2.337-2.337 0-1.214-.929-2.199-2.112-2.314v-3.669c5.05-.475 9.658-2.471 13.357-5.53l2.592 2.592c-.756.918-.716 2.272.143 3.13.456.456 1.054.684 1.652.684s1.196-.228 1.652-.684l1.493-1.494 1.493-1.493c.912-.913.912-2.392 0-3.304-.858-.858-2.212-.899-3.13-.143l-2.592-2.592c3.059-3.699 5.055-8.306 5.53-13.357h3.668c.115 1.184 1.101 2.112 2.314 2.112 1.29 0 2.337-1.046 2.337-2.336v-4.225c-.002-1.291-1.048-2.337-2.338-2.337z" fill="#6bdddd" data-original="#6BDDDD" class=""/></g></g><g><g><circle cx="128" cy="45.932" fill="#4671c6" r="18.773" data-original="#4671C6" class=""/></g></g><g><g><g><circle cx="124.381" cy="41.666" fill="#e0ebfc" r="6.944" data-original="#E0EBFC" class=""/></g></g><g><g><circle cx="134.699" cy="53.278" fill="#e0ebfc" r="3.863" data-original="#E0EBFC" class=""/></g></g></g><g><g><path d="m141.536 42.055c-.821.821-2.152.821-2.974 0l-2.974-2.974c-.821-.821-.821-2.153 0-2.974.821-.821 2.152-.821 2.974 0l2.974 2.974c.821.822.821 2.153 0 2.974z" fill="#a4c9ff" data-original="#A4C9FF"/></g></g><g><g><path d="m122.719 56.925c-.821.821-2.152.821-2.974 0l-2.974-2.974c-.821-.821-.821-2.152 0-2.974.821-.821 2.153-.821 2.974 0l2.974 2.974c.821.822.821 2.153 0 2.974z" fill="#f9a7a7" data-original="#F9A7A7"/></g></g><g><g><path d="m130.112 80.778h-4.225c-2.392 0-4.337-1.945-4.337-4.337 0-1.577.837-2.961 2.112-3.717v-.507c-4.045-.661-7.855-2.238-11.185-4.631l-.357.356c.368 1.437-.02 3.008-1.135 4.122-.819.819-1.908 1.271-3.066 1.271-2.029 0-3.184-1.314-3.874-2.1-.135-.154-.32-.365-.396-.425-.142-.095-.268-.204-.377-.327-.297-.298-1.318-1.317-1.4-1.4-1.696-1.695-1.696-4.446-.007-6.138 1.115-1.116 2.687-1.503 4.123-1.136l.357-.356c-2.393-3.33-3.972-7.142-4.632-11.186h-.506c-.756 1.275-2.141 2.112-3.718 2.112-2.391 0-4.336-1.945-4.336-4.336v-4.226c0-2.392 1.945-4.337 4.336-4.337 1.577 0 2.962.837 3.718 2.113h.506c.66-4.044 2.239-7.855 4.631-11.186l-.355-.356c-1.438.368-3.008-.021-4.123-1.136-1.69-1.69-1.69-4.441 0-6.132l2.987-2.987c1.691-1.691 4.441-1.691 6.133 0 1.115 1.114 1.503 2.685 1.135 4.122l.357.356c3.329-2.393 7.14-3.97 11.185-4.631v-.503c-1.275-.756-2.112-2.14-2.112-3.717 0-2.392 1.945-4.337 4.337-4.337h4.225c2.392 0 4.337 1.945 4.337 4.337 0 1.577-.837 2.961-2.112 3.717v.507c4.045.661 7.855 2.238 11.185 4.631l.357-.356c-.368-1.438.02-3.009 1.136-4.123.816-.818 1.906-1.27 3.064-1.27h.001c1.159 0 2.248.451 3.066 1.271l2.987 2.987c1.69 1.69 1.69 4.441-.001 6.133-1.114 1.114-2.683 1.504-4.121 1.135l-.356.357c2.393 3.329 3.971 7.141 4.631 11.185h.506c.756-1.276 2.141-2.113 3.718-2.113 2.391 0 4.336 1.945 4.336 4.337v4.226c0 2.391-1.945 4.336-4.336 4.336-1.577 0-2.962-.837-3.718-2.112h-.506c-.66 4.044-2.238 7.855-4.631 11.185l.356.357c1.438-.367 3.008.02 4.121 1.135 1.69 1.69 1.691 4.441.002 6.132l-2.988 2.988c-.821.82-1.91 1.271-3.066 1.271-1.158 0-2.247-.451-3.066-1.271-1.115-1.114-1.503-2.686-1.135-4.122l-.357-.356c-3.329 2.393-7.14 3.97-11.185 4.631v.507c1.275.756 2.112 2.14 2.112 3.717-.001 2.388-1.946 4.333-4.338 4.333zm-17.805-17.848c.451 0 .903.151 1.274.459 3.504 2.897 7.746 4.654 12.27 5.08 1.027.097 1.813.959 1.813 1.991v3.668c0 1.03-.782 1.892-1.808 1.991-.147.014-.305.132-.305.322 0 .186.151.337.337.337h4.225c.186 0 .337-.151.337-.337 0-.19-.157-.309-.305-.322-1.025-.1-1.808-.961-1.808-1.991v-3.668c0-1.032.785-1.895 1.813-1.991 4.523-.426 8.766-2.183 12.27-5.08.793-.658 1.958-.604 2.688.127l2.592 2.592c.729.729.784 1.891.13 2.686-.095.114-.122.31.013.444.164.162.312.164.478-.002l2.986-2.985c.131-.131.131-.345-.001-.477-.135-.134-.329-.107-.443-.013-.795.655-1.957.599-2.686-.13l-2.592-2.592c-.729-.729-.784-1.894-.127-2.688 2.897-3.504 4.654-7.746 5.08-12.27.097-1.027.959-1.813 1.991-1.813h3.667c1.03 0 1.892.782 1.991 1.808.014.147.132.305.323.305.186 0 .336-.15.336-.336v-4.226c0-.186-.15-.337-.336-.337-.191 0-.31.157-.323.306-.1 1.025-.961 1.808-1.991 1.808h-3.667c-1.032 0-1.895-.785-1.991-1.813-.426-4.523-2.183-8.766-5.08-12.27-.657-.795-.603-1.959.127-2.688l2.592-2.592c.729-.729 1.891-.785 2.686-.13.229.189.421.008.443-.013.132-.132.132-.346.001-.477l-2.987-2.987c-.082-.081-.175-.099-.238-.099-.063 0-.156.018-.237.098-.136.137-.108.331-.014.445.654.795.599 1.957-.13 2.686l-2.592 2.592c-.73.729-1.896.785-2.688.127-3.504-2.897-7.746-4.654-12.27-5.08-1.027-.097-1.813-.959-1.813-1.991v-3.668c0-1.03.782-1.892 1.808-1.991.147-.014.305-.132.305-.322 0-.186-.151-.337-.337-.337h-4.225c-.186 0-.337.151-.337.337 0 .19.157.309.305.322 1.025.1 1.808.961 1.808 1.991v3.668c0 1.032-.785 1.895-1.813 1.991-4.523.426-8.766 2.183-12.27 5.08-.794.657-1.959.603-2.688-.127l-2.592-2.592c-.729-.729-.784-1.891-.13-2.686.095-.114.122-.309-.012-.443-.133-.133-.347-.13-.478-.001l-2.987 2.987c-.131.131-.131.345 0 .476.022.021.215.2.442.015.796-.656 1.958-.601 2.688.128l2.592 2.592c.729.729.784 1.894.127 2.688-2.897 3.505-4.654 7.748-5.08 12.271-.097 1.027-.959 1.813-1.991 1.813h-3.667c-1.03 0-1.892-.782-1.991-1.808-.014-.148-.132-.306-.323-.306-.186 0-.336.151-.336.337v4.226c0 .186.15.336.336.336.191 0 .31-.157.323-.305.1-1.025.961-1.808 1.991-1.808h3.667c1.032 0 1.895.785 1.991 1.813.426 4.523 2.183 8.766 5.08 12.27.657.795.603 1.959-.127 2.688l-2.592 2.593c-.729.729-1.893.783-2.688.129-.113-.095-.308-.121-.442.013-.131.131-.131.345 0 .477.588.587 1.01 1.009 1.312 1.329.423.308.752.684 1.046 1.018.449.511.681.739.868.739.063 0 .156-.018.238-.099.135-.135.107-.33.013-.444-.654-.795-.599-1.957.13-2.686l2.592-2.592c.387-.389.899-.586 1.413-.586z" fill="#3762cc" data-original="#3762CC" class="hovered-path active-path" data-old_color="#3762cc" style="fill:#3A4256"/></g></g></g></g></g> </svg>
